<?xml version="1.0" encoding="UTF-8" standalone="no"?>
<!-- Created with Inkscape (http://www.inkscape.org/) -->

<svg
   version="1.1"
   id="svg1"
   width="385.42667"
   height="371.64001"
   viewBox="0 0 385.42667 371.64001"
   sodipodi:docname="UM-Dearborn_Logo-CMYK.eps"
   xmlns:inkscape="http://www.inkscape.org/namespaces/inkscape"
   xmlns:sodipodi="http://sodipodi.sourceforge.net/DTD/sodipodi-0.dtd"
   xmlns="http://www.w3.org/2000/svg"
   xmlns:svg="http://www.w3.org/2000/svg">
  <defs
     id="defs1" />
  <sodipodi:namedview
     id="namedview1"
     pagecolor="#ffffff"
     bordercolor="#000000"
     borderopacity="0.25"
     inkscape:showpageshadow="2"
     inkscape:pageopacity="0.0"
     inkscape:pagecheckerboard="0"
     inkscape:deskcolor="#d1d1d1">
    <inkscape:page
       x="0"
       y="0"
       inkscape:label="1"
       id="page1"
       width="385.42667"
       height="371.64001"
       margin="0"
       bleed="0" />
  </sodipodi:namedview>
  <g
     id="g1"
     inkscape:groupmode="layer"
     inkscape:label="1">
    <g
       id="group-R5">
      <path
         id="path2"
         d="M 2890.7,0 H 0 V 2787.28 H 2890.7 V 0"
         style="fill:#0b2b53;fill-opacity:1;fill-rule:nonzero;stroke:none"
         transform="matrix(0.13333333,0,0,-0.13333333,0,371.64)" />
      <path
         id="path3"
         d="m 1447.73,1126.74 -430.15,587.8 V 1287.05 H 1188.6 V 864.512 H 397.422 v 422.538 h 160.476 v 657.2 H 397.422 v 422.27 h 621.468 l 428.84,-591.98 428.83,591.98 h 621.2 v -422.27 h -160.41 v -657.2 h 160.41 V 864.512 h -791.11 v 422.538 h 171.09 v 427.49 l -430.01,-587.8"
         style="fill:#fccb06;fill-opacity:1;fill-rule:nonzero;stroke:none"
         transform="matrix(0.13333333,0,0,-0.13333333,0,371.64)" />
      <path
         id="path4"
         d="m 867.98,489.422 h -11.132 c -2.426,-12.774 -6.422,-21.981 -11.922,-27.41 -5.637,-5.571 -12.055,-8.711 -18.996,-9.672 -6.942,-1.008 -17.95,-1.57 -32.946,-1.57 -14.414,0 -24.105,1.812 -29.086,5.371 -5.043,3.609 -7.531,9.441 -7.531,17.398 v 64.223 h 24.563 c 10.218,0 17.75,-0.59 22.597,-1.84 4.981,-1.172 8.516,-3.762 10.61,-7.633 2.097,-3.891 3.144,-10.148 3.144,-18.828 h 11.074 v 75.719 h -11.074 c -0.847,-7.399 -2.16,-12.969 -4.125,-16.7 -1.898,-3.671 -5.176,-6.351 -10.023,-7.992 -4.715,-1.566 -12.051,-2.359 -21.875,-2.359 H 756.367 V 638.5 h 28.231 c 14.343,0 25.152,-0.59 32.355,-2.07 7.274,-1.371 12.777,-4.481 16.969,-9.289 3.992,-4.821 6.875,-12.352 8.516,-22.539 h 10.48 l -1.117,54.328 H 688.574 v -12.309 c 9.43,-0.851 15.852,-1.973 19.258,-3.371 3.34,-1.57 5.695,-4.82 6.941,-9.762 1.051,-5.859 1.77,-19.648 1.77,-41.457 v -80.34 c 0,-19.031 -0.262,-32.16 -0.719,-39.3 -0.066,-8.809 -0.851,-15.071 -2.164,-18.672 -1.308,-3.598 -3.734,-6.02 -7.14,-7.469 -3.536,-1.441 -9.563,-2.48 -17.946,-3.301 V 430.34 h 174.231 c 0,14.281 1.703,33.961 5.175,59.082 z m 202.66,29.738 -32.16,95.102 -33.54,-95.102 z m 95.3,-88.82 h -107.02 v 12.281 c 9.56,0.879 16.57,2.129 20.96,3.957 4.38,1.774 6.61,5.473 6.61,11.141 0,3.269 -0.79,7.863 -2.42,13.363 l -6.82,23.477 h -80.691 l -7.207,-19.879 c -1.836,-5.7 -2.684,-10.379 -2.684,-13.95 0,-7.21 2.684,-11.859 8.055,-14.082 5.437,-2.027 12.967,-3.378 22.797,-4.027 V 430.34 h -94.129 v 12.281 c 8.386,0.418 14.933,1.469 19.656,3.168 4.582,1.781 8.574,4.492 11.656,8.59 3.078,3.961 6.156,10.082 9.172,18.301 l 61.765,169.711 -3.67,5.41 c 12.97,4.16 22.4,7.66 28.04,10.41 5.76,2.621 11.66,6.23 17.62,10.578 2.75,-9.59 6.22,-20.66 10.15,-33.57 l 50.7,-155.36 c 3.27,-9.988 6.09,-17.328 8.64,-22.007 2.62,-4.782 6.03,-8.192 10.22,-10.422 4.26,-2.16 10.41,-3.758 18.6,-4.809 z M 1290,640.012 v -82.41 c 6.35,-1.633 13.49,-2.481 21.29,-2.481 8.32,0 16.18,1.758 23.25,5.367 7.01,3.371 12.64,7.992 16.84,13.621 4.05,5.571 6.22,11.403 6.68,17.692 0.72,14.57 -3.08,26.418 -11.73,35.73 -8.58,9.399 -22.73,13.981 -42.51,13.981 -5.43,0 -10.02,-0.524 -13.82,-1.5 z m 0,-102.84 V 503.57 c 0.2,-19.98 0.66,-33.672 1.51,-40.941 0.78,-7.399 3.01,-12.348 6.61,-14.93 3.54,-2.758 10.16,-4.258 19.72,-4.75 V 430.34 h -95.63 v 12.609 c 8.51,0.821 14.73,1.992 18.34,3.629 3.53,1.613 5.96,4.262 7.14,8.133 1.18,3.73 1.9,10.019 2.03,18.828 0.26,6.449 0.39,16.301 0.39,29.699 v 82.832 c 0,23.61 -0.52,38.41 -1.57,44.7 -0.72,6.16 -2.95,10.218 -6.42,12.25 -3.47,2.031 -10.15,3.339 -19.91,3.929 v 12.25 h 103.69 c 26.39,0 45.45,-5.41 57.05,-15.949 11.59,-10.711 17.42,-25.031 17.42,-42.871 0,-11.66 -3.86,-22.899 -11.59,-33.539 -7.67,-10.61 -19,-18.27 -33.8,-22.789 l 40.87,-74.742 c 4.72,-9.11 9.1,-16.11 12.84,-20.797 3.8,-4.711 7.79,-8.024 11.99,-10.18 4.25,-2.102 9.56,-3.73 15.91,-4.652 v -7.801 c -6.35,-0.418 -11.46,-0.617 -15.06,-0.617 -14.28,0 -26.2,1.769 -35.57,5.277 -9.37,3.531 -17.49,9.102 -24.04,16.731 -6.68,7.73 -13.1,18.312 -19.45,31.699 l -12.64,26.691 c -4.66,9.961 -8.52,17.031 -11.67,21.262 -3.2,4.187 -6.81,6.84 -10.61,8.148 -3.93,1.18 -9.82,1.84 -17.55,2.102 z m 279.43,3.566 H 1548.2 V 487.32 c 0,-10.019 0.53,-17.289 1.32,-21.968 0.98,-4.782 3.47,-8.391 7.53,-10.973 4.06,-2.617 10.87,-3.797 20.17,-3.797 7.8,0 15.85,1.469 24.11,4.52 8.12,3.078 15.13,8.148 20.82,14.957 5.7,6.953 8.52,15.89 8.52,26.89 0,11.992 -2.36,21.192 -7.08,27.582 -4.71,6.379 -11.32,10.68 -19.91,12.899 -8.64,2.261 -19.97,3.308 -34.25,3.308 z m -21.23,98.352 v -77.102 c 13.82,-0.09 25.88,0.762 36.1,2.621 10.28,1.871 18.86,6.192 25.67,12.582 6.81,6.418 10.22,16.11 10.22,28.618 0,13.043 -4.98,21.953 -14.67,26.761 -9.83,4.782 -23.45,7.211 -40.81,7.211 -3.41,0 -8.84,-0.301 -16.51,-0.691 z m -71.98,20.43 h 117.83 c 10.62,0 19.92,-0.59 27.91,-1.731 7.99,-1.277 15.19,-3.867 21.55,-7.828 7.2,-4.289 12.84,-10.09 16.83,-17.723 4,-7.527 5.96,-15.75 5.96,-24.656 0,-29.152 -19.32,-47.75 -58.1,-55.742 10.55,-1.051 19.65,-2.36 27.12,-4.258 7.53,-1.801 14.41,-4.91 20.83,-9.492 15,-10.68 22.47,-25.809 22.47,-45.629 0,-20.402 -7.6,-36.641 -22.8,-48.66 -7.01,-5.281 -14.74,-8.84 -23.25,-10.781 -8.45,-1.7 -19.33,-2.68 -32.42,-2.68 h -75 -30.59 v 12.281 c 5.76,1.469 8.71,8.051 8.71,19.91 0.39,10.77 0.53,29.93 0.53,57.41 v 68.45 c 0,20.73 -0.4,34.32 -1.12,41.199 -0.85,6.75 -2.95,11.23 -6.35,13.332 -3.41,2 -10.09,3.508 -20.11,4.289 z m 369.75,-217.461 c 7.86,0.261 15.65,2.562 23.65,6.941 8.05,4.391 15.26,11.398 21.61,21.262 7.01,10.808 11.86,21.578 14.61,32.187 2.62,10.813 3.93,22.992 3.93,36.723 0,35.66 -8.52,62.777 -25.74,81.379 -12.38,12.738 -26.07,18.929 -41.14,18.539 -14.73,0 -28.1,-6.551 -40.15,-20.012 -15.72,-17.918 -23.58,-42.348 -23.58,-73.59 0,-15.988 1.37,-29.937 4.39,-41.828 3.01,-11.82 8.51,-23.48 16.57,-34.871 6.75,-9.629 14.21,-16.449 22.2,-20.57 8.19,-4.129 16.05,-6.16 23.65,-6.16 z m 114.23,99.203 c 0,-25.313 -5.17,-47.09 -15.59,-65.274 -10.48,-18.179 -24.3,-32 -41.66,-41.297 -17.42,-9.269 -36.41,-13.921 -56.98,-13.921 -22.2,0 -42.25,5.019 -60.26,15.171 -18.01,10.118 -32.23,24.258 -42.64,42.539 -10.35,18.34 -15.52,39.372 -15.52,63.211 0,21.161 4.51,40.84 13.62,58.911 9.1,18.117 22.2,32.589 39.56,43.457 17.23,10.812 37.66,16.32 61.31,16.32 22.79,0 43.16,-4.981 61.11,-15.141 18.01,-10.047 32.03,-24.156 42.12,-42.308 9.89,-18.078 14.93,-38.578 14.93,-61.668 z m 110.63,96.648 v -84.922 c 7.54,-1.277 14.61,-2.066 21.42,-2.066 8.39,0 16.11,1.898 23.06,5.699 7.01,3.867 12.64,8.649 16.83,14.711 4.19,6.059 6.49,12.207 6.81,18.367 0.79,14.61 -2.94,26.43 -11.52,35.66 -8.45,9.141 -22.6,13.731 -42.38,13.731 -5.37,0 -10.15,-0.328 -14.22,-1.18 z m 0,-105 v -29.672 c 0.27,-19.976 0.86,-33.539 1.58,-40.707 0.78,-7.301 2.94,-12.25 6.61,-14.832 3.6,-2.758 10.22,-4.199 19.78,-4.429 v -12.93 h -95.63 v 12.93 c 8.65,0.531 14.67,1.671 18.28,3.308 3.6,1.613 6.02,4.262 7.2,8.133 1.18,3.73 1.9,10.019 2.1,18.828 0.32,6.191 0.32,16.012 0.32,29.402 v 83.129 c 0,23.211 -0.45,37.989 -1.24,44.371 -0.72,6.188 -2.88,10.278 -6.48,12.278 -3.48,1.929 -10.22,3.441 -20.18,4.23 v 12.571 h 103.76 c 26.33,0 45.32,-5.43 56.85,-16.27 11.4,-11.012 17.22,-25.191 17.22,-42.871 0,-7.731 -1.63,-15.66 -4.97,-23.777 -3.28,-8.122 -8.32,-15.52 -15,-22.071 -6.68,-6.621 -15.07,-11.472 -25.02,-14.679 l 40.54,-70.543 c 4.91,-9.11 9.3,-16.11 13.1,-20.797 3.8,-4.711 7.8,-8.024 11.92,-10.18 4.06,-2.102 9.37,-3.73 15.66,-4.652 v -7.801 c -6.29,-0.418 -11.27,-0.617 -14.68,-0.617 -14.34,0 -26.26,1.769 -35.69,5.277 -9.3,3.531 -17.36,9.031 -23.91,16.633 -6.62,7.598 -13.1,18.078 -19.58,31.508 l -12.58,26.98 c -4.32,9.629 -8.19,16.18 -11.33,19.781 -3.34,3.61 -6.49,5.668 -9.83,6.289 -3.27,0.629 -9.43,0.981 -18.8,1.18 z m 277.92,-90.289 c -12.77,1.469 -21.42,2.981 -26.07,4.649 -4.58,1.73 -7.66,5.14 -9.17,10.152 -1.5,5.207 -2.22,14.207 -2.22,27.219 v 118.847 l 90.58,-111.578 c 5.96,-7.269 12.05,-14.84 18.28,-22.859 l 12.84,-15.852 20.37,-25.519 h 13.49 l 3.34,176.718 c 0.2,13.34 0.85,22.832 1.97,28.403 1.11,5.629 3.47,9.429 7.2,11.258 3.67,1.91 9.83,3.023 18.4,3.152 v 12.309 h -90.25 v -12.309 c 13.23,-0.59 22.14,-1.641 26.85,-3.152 4.65,-1.43 7.73,-4.579 8.78,-9.227 1.24,-4.75 1.96,-13.793 2.16,-27.25 V 505.07 l -63.86,79.231 c -16.05,19.75 -26.99,33.5 -32.82,41.359 -5.96,7.828 -14.08,18.988 -24.5,33.86 h -68.64 v -12.309 c 7.8,-0.781 13.69,-2.063 17.69,-3.859 3.99,-1.84 9.1,-5.543 15.39,-11.403 -0.46,-23.347 -1.18,-56.59 -2.36,-99.59 -1.05,-43.07 -1.9,-68.058 -2.23,-75.359 -0.19,-3.93 -0.78,-6.879 -1.7,-8.852 -0.92,-2.027 -1.9,-3.398 -3.28,-3.957 -1.31,-0.621 -3.07,-1.152 -5.1,-1.57 V 430.34 h 74.86 z M 482.375,638.859 H 462.27 V 490.301 c 0,-11.821 0.457,-20.242 1.507,-25.25 0.985,-5.141 3.211,-8.61 6.743,-10.582 3.539,-1.86 9.238,-2.778 17.23,-2.778 20.961,0 38.777,4.258 53.121,12.739 14.539,8.48 25.543,20.011 32.746,34.75 7.274,14.672 11.008,31.308 11.008,49.941 0,14.219 -2.293,26.5 -6.812,36.649 -4.458,10.218 -11.333,20.171 -20.567,29.929 -6.551,7.242 -14.019,12.52 -22.269,15.821 -8.321,3.312 -16.247,5.269 -23.844,5.929 -7.531,0.75 -17.293,1.211 -28.758,1.41 z M 494.691,430.34 H 392.969 v 12.93 c 8.058,0.82 13.758,1.941 17.097,3.308 3.34,1.383 5.762,4.004 7.008,7.602 1.114,3.73 1.836,9.82 2.028,18.5 0.394,7.179 0.593,20.211 0.593,39.199 v 80.152 c 0,22 -0.593,35.86 -1.769,41.75 -1.242,4.981 -3.473,8.188 -6.813,9.699 -3.343,1.442 -9.367,2.68 -18.144,3.469 v 12.25 h 105 c 18.797,0 34.125,-0.789 46.304,-2.558 12.122,-1.77 23.844,-5.891 35.176,-12.711 14.215,-8.539 26.332,-21.321 36.356,-38.121 9.953,-16.797 14.933,-36.477 14.933,-59.11 0,-29.179 -7.929,-54.14 -23.91,-74.898 -9.824,-12.512 -21.351,-21.68 -34.387,-27.61 -13.097,-6.062 -25.48,-9.66 -37.203,-11.171 -11.726,-1.372 -25.218,-2.219 -40.547,-2.68"
         style="fill:#ffffff;fill-opacity:1;fill-rule:nonzero;stroke:none"
         transform="matrix(0.13333333,0,0,-0.13333333,0,371.64)" />
    </g>
  </g>
</svg>
