<svg id="visual" viewBox="0 0 900 300" width="900" height="300" xmlns="http://www.w3.org/2000/svg" xmlns:xlink="http://www.w3.org/1999/xlink" version="1.1"><rect x="0" y="0" width="900" height="600" fill="#FFFFFF"></rect><path d="M0 238L21.5 229.8C43 221.7 86 205.3 128.8 202.8C171.7 200.3 214.3 211.7 257.2 220.2C300 228.7 343 234.3 385.8 230.7C428.7 227 471.3 214 514.2 213.5C557 213 600 225 642.8 219.8C685.7 214.7 728.3 192.3 771.2 188C814 183.7 857 197.3 878.5 204.2L900 211L900 0L878.5 0C857 0 814 0 771.2 0C728.3 0 685.7 0 642.8 0C600 0 557 0 514.2 0C471.3 0 428.7 0 385.8 0C343 0 300 0 257.2 0C214.3 0 171.7 0 128.8 0C86 0 43 0 21.5 0L0 0Z" fill="#95e4c0"></path><path d="M0 133L21.5 136.3C43 139.7 86 146.3 128.8 156.7C171.7 167 214.3 181 257.2 185C300 189 343 183 385.8 181C428.7 179 471.3 181 514.2 185.5C557 190 600 197 642.8 190.2C685.7 183.3 728.3 162.7 771.2 159.8C814 157 857 172 878.5 179.5L900 187L900 0L878.5 0C857 0 814 0 771.2 0C728.3 0 685.7 0 642.8 0C600 0 557 0 514.2 0C471.3 0 428.7 0 385.8 0C343 0 300 0 257.2 0C214.3 0 171.7 0 128.8 0C86 0 43 0 21.5 0L0 0Z" fill="#8acaa5"></path><path d="M0 138L21.5 138.2C43 138.3 86 138.7 128.8 134.2C171.7 129.7 214.3 120.3 257.2 112.7C300 105 343 99 385.8 107.2C428.7 115.3 471.3 137.7 514.2 146.2C557 154.7 600 149.3 642.8 145.5C685.7 141.7 728.3 139.3 771.2 140.5C814 141.7 857 146.3 878.5 148.7L900 151L900 0L878.5 0C857 0 814 0 771.2 0C728.3 0 685.7 0 642.8 0C600 0 557 0 514.2 0C471.3 0 428.7 0 385.8 0C343 0 300 0 257.2 0C214.3 0 171.7 0 128.8 0C86 0 43 0 21.5 0L0 0Z" fill="#7eb18c"></path><path d="M0 73L21.5 76.7C43 80.3 86 87.7 128.8 94.3C171.7 101 214.3 107 257.2 100.8C300 94.7 343 76.3 385.8 67.2C428.7 58 471.3 58 514.2 62.3C557 66.7 600 75.3 642.8 81.2C685.7 87 728.3 90 771.2 93.8C814 97.7 857 102.3 878.5 104.7L900 107L900 0L878.5 0C857 0 814 0 771.2 0C728.3 0 685.7 0 642.8 0C600 0 557 0 514.2 0C471.3 0 428.7 0 385.8 0C343 0 300 0 257.2 0C214.3 0 171.7 0 128.8 0C86 0 43 0 21.5 0L0 0Z" fill="#719975"></path><path d="M0 37L21.5 37.2C43 37.3 86 37.7 128.8 41.3C171.7 45 214.3 52 257.2 56C300 60 343 61 385.8 57.3C428.7 53.7 471.3 45.3 514.2 40.2C557 35 600 33 642.8 33C685.7 33 728.3 35 771.2 41.8C814 48.7 857 60.3 878.5 66.2L900 72L900 0L878.5 0C857 0 814 0 771.2 0C728.3 0 685.7 0 642.8 0C600 0 557 0 514.2 0C471.3 0 428.7 0 385.8 0C343 0 300 0 257.2 0C214.3 0 171.7 0 128.8 0C86 0 43 0 21.5 0L0 0Z" fill="#64815f"></path></svg>