<svg version="1.1" id="Layer_1" xmlns="http://www.w3.org/2000/svg" xmlns:xlink="http://www.w3.org/1999/xlink" x="0px" y="0px"
	 width="100%" viewBox="0 0 728 724" enable-background="new 0 0 728 724" xml:space="preserve">
<path fill="#FFFFFF" opacity="1.000000" stroke="none" 
	d="
M457.000000,725.000000 
	C304.666656,725.000000 152.833328,725.000000 1.000000,725.000000 
	C1.000000,483.666656 1.000000,242.333328 1.000000,1.000000 
	C243.666672,1.000000 486.333344,1.000000 729.000000,1.000000 
	C729.000000,242.333328 729.000000,483.666656 729.000000,725.000000 
	C638.500000,725.000000 548.000000,725.000000 457.000000,725.000000 
M497.164856,137.221146 
	C496.444183,137.151108 495.723541,137.081055 494.083221,136.811478 
	C404.551331,136.800049 315.019409,136.788086 225.487518,136.785400 
	C224.660706,136.785385 223.833908,136.909363 222.317383,136.940628 
	C222.012650,137.269196 221.707901,137.597748 220.906204,138.324280 
	C212.306793,153.113724 203.693604,167.895172 195.110367,182.694000 
	C158.705032,245.462570 122.332985,308.250519 85.825798,370.959778 
	C84.251427,373.664093 84.912628,375.312195 86.246605,377.604034 
	C104.961273,409.756134 123.592072,441.957092 142.244278,474.145569 
	C167.800217,518.247986 193.344620,562.357178 218.959122,606.425598 
	C219.961990,608.150940 221.637970,609.485107 223.927475,611.152344 
	C313.625702,611.163269 403.323914,611.174744 493.022125,611.176819 
	C494.015747,611.176880 495.009399,611.055237 496.625275,611.005127 
	C496.891205,610.700317 497.157166,610.395508 497.948303,609.698120 
	C518.430054,574.395020 538.913147,539.092590 559.393188,503.788452 
	C576.622803,474.087555 593.880371,444.402740 611.062744,414.674561 
	C618.858398,401.186890 626.502136,387.611389 634.439270,373.334900 
	C621.306824,350.628357 608.179199,327.919037 595.041016,305.215759 
	C568.686401,259.673981 542.351624,214.120621 515.948486,168.606979 
	C509.956970,158.278870 503.719604,148.093399 497.164856,137.221146 
z"/>
<path fill="#2E52A9" opacity="1.000000" stroke="none" 
	d="
M223.007095,136.975464 
	C223.833908,136.909363 224.660706,136.785385 225.487518,136.785400 
	C315.019409,136.788086 404.551331,136.800049 494.648743,137.132431 
	C495.416504,137.725113 495.678406,137.914200 495.963074,138.373459 
	C491.307617,146.765244 486.676941,154.797241 482.073212,162.844666 
	C473.360413,178.074905 464.713287,193.342957 455.946106,208.541794 
	C445.928650,225.908188 435.848999,243.239044 425.720917,260.541168 
	C419.699371,270.828003 413.437561,280.974976 407.481659,291.298981 
	C405.358063,294.980011 403.817413,298.997284 401.699768,302.750244 
	C395.706543,299.231262 390.354065,295.003571 384.283478,292.559692 
	C360.680023,283.057373 337.331879,282.957184 315.959045,298.258392 
	C293.056885,314.654480 293.012543,346.983398 315.467896,363.954407 
	C320.186035,367.520264 325.631226,370.225647 330.985809,372.823730 
	C338.890259,376.658966 347.013763,380.042664 354.649841,383.764832 
	C346.796173,396.846008 339.336609,409.781036 331.487152,422.654663 
	C323.436310,418.409271 315.775299,414.225281 307.650696,409.788055 
	C302.806061,415.500458 297.384796,421.892761 290.945282,429.485718 
	C300.567352,435.179688 309.380249,440.394806 318.041382,445.947205 
	C316.281586,448.994934 314.655640,451.694946 313.068329,454.417511 
	C299.527679,477.642334 285.967072,500.855560 272.466461,524.103638 
	C260.548492,544.626404 248.644379,565.157593 236.847610,585.750061 
	C232.076675,594.078308 227.607040,602.579224 223.000275,611.001526 
	C221.637970,609.485107 219.961990,608.150940 218.959122,606.425598 
	C193.344620,562.357178 167.800217,518.247986 142.244278,474.145569 
	C123.592072,441.957092 104.961273,409.756134 86.246605,377.604034 
	C84.912628,375.312195 84.251427,373.664093 85.825798,370.959778 
	C122.332985,308.250519 158.705032,245.462570 195.110367,182.694000 
	C203.693604,167.895172 212.306793,153.113724 221.475464,138.060486 
	C222.365509,137.522949 222.686310,137.249207 223.007095,136.975464 
M169.066772,377.526306 
	C161.401474,401.155487 153.736176,424.784698 145.913574,448.898834 
	C154.737320,448.898834 162.727783,448.709656 170.702087,448.986481 
	C174.178589,449.107208 175.628784,448.033905 176.533813,444.638519 
	C179.659805,432.910431 183.073441,421.255859 186.611633,409.644653 
	C187.061584,408.168030 188.882721,406.042694 190.094299,406.025452 
	C206.890503,405.786713 223.691177,405.863983 240.719711,405.863983 
	C244.498505,419.091797 248.152222,432.025482 251.935547,444.921112 
	C252.351166,446.337738 253.479507,448.642303 254.329926,448.666260 
	C263.852234,448.934509 273.384857,448.835693 282.741058,448.835693 
	C282.923218,447.901428 283.020538,447.719635 282.976440,447.583771 
	C266.187134,395.861237 249.368988,344.148071 232.646210,292.404053 
	C231.809601,289.815399 230.477066,289.149323 227.957108,289.186798 
	C219.464386,289.313080 210.960983,289.445343 202.477554,289.137543 
	C198.773575,289.003174 197.296631,290.351898 196.216721,293.730347 
	C187.357346,321.446625 178.324371,349.107422 169.066772,377.526306 
z"/>
<path fill="#4A6CB5" opacity="1.000000" stroke="none" 
	d="
M223.463867,611.076904 
	C227.607040,602.579224 232.076675,594.078308 236.847610,585.750061 
	C248.644379,565.157593 260.548492,544.626404 272.466461,524.103638 
	C285.967072,500.855560 299.527679,477.642334 313.068329,454.417511 
	C314.655640,451.694946 316.281586,448.994934 318.423553,445.982239 
	C335.545471,451.939667 352.533264,453.753937 369.918335,449.861572 
	C383.852539,446.741882 395.701752,440.191193 403.903503,428.045715 
	C413.331024,414.085083 415.638031,389.100952 397.125549,372.167603 
	C407.739868,372.059204 417.868713,372.029602 428.235229,371.998413 
	C428.472900,371.996857 428.937439,371.896423 428.937439,371.896423 
	C428.937439,371.896423 429.412689,371.896515 429.562012,372.348358 
	C429.711334,398.016907 429.711334,423.233582 429.711334,448.610352 
	C438.409576,448.610352 446.303314,448.610352 454.746246,448.610352 
	C454.746246,423.243744 454.746246,398.166626 455.222961,373.063538 
	C459.409088,373.011505 463.118561,372.985413 467.059357,373.255737 
	C469.883942,380.927979 472.497406,388.296692 475.065613,395.681183 
	C478.948425,406.845612 478.937195,406.694122 490.627533,406.854309 
	C494.102509,406.901917 495.575012,405.757782 496.653259,402.544952 
	C499.983795,392.620880 503.664825,382.814453 507.657013,372.970367 
	C512.030945,372.980408 515.957581,372.982452 519.962036,373.448578 
	C520.039856,398.773621 520.039856,423.634613 520.039856,448.548340 
	C528.678650,448.548340 536.727112,448.548340 545.119080,448.548340 
	C545.119080,446.388031 545.113708,444.581451 545.119873,442.774933 
	C545.199280,419.505280 545.280334,396.235626 545.806946,372.972595 
	C575.573608,373.344727 604.894165,373.710236 634.214783,374.075714 
	C626.502136,387.611389 618.858398,401.186890 611.062744,414.674561 
	C593.880371,444.402740 576.622803,474.087555 559.393188,503.788452 
	C538.913147,539.092590 518.430054,574.395020 497.395203,609.952209 
	C496.562408,610.467651 496.282715,610.729004 496.002991,610.990356 
	C495.009399,611.055237 494.015747,611.176880 493.022125,611.176819 
	C403.323914,611.174744 313.625702,611.163269 223.463867,611.076904 
z"/>
<path fill="#354593" opacity="1.000000" stroke="none" 
	d="
M634.327026,373.705322 
	C604.894165,373.710236 575.573608,373.344727 545.717041,372.513123 
	C545.181091,344.617279 545.181091,317.187561 545.181091,289.238220 
	C535.850159,289.238220 527.059204,289.417053 518.281799,289.151337 
	C514.706665,289.043091 513.056030,290.073914 512.018921,293.620850 
	C504.506866,319.311981 496.778503,344.939850 489.111694,370.585693 
	C488.715332,371.911530 488.255768,373.218506 487.524231,375.456451 
	C486.674103,373.064178 486.115906,371.689453 485.693054,370.274292 
	C478.410339,345.900330 471.148438,321.520203 463.872375,297.144318 
	C461.511627,289.235474 461.497498,289.136108 453.255554,289.268066 
	C445.316498,289.395111 437.381378,289.765778 429.263702,290.063721 
	C429.167816,290.387909 429.252716,290.677795 429.505371,291.408936 
	C429.703705,313.446808 429.757751,335.043396 429.745544,356.640015 
	C429.743011,361.106384 429.494171,365.572632 429.106995,370.122437 
	C428.569275,370.803955 428.283417,371.401978 427.997559,372.000000 
	C417.868713,372.029602 407.739868,372.059204 396.817322,372.046204 
	C387.307526,367.414734 378.591431,362.825867 369.935059,357.862183 
	C376.377869,346.183044 382.760986,334.878784 389.506348,323.703979 
	C390.614685,323.794495 391.725098,324.060822 392.052124,323.670624 
	C396.685364,318.142487 401.212341,312.525238 405.798981,306.887878 
	C404.247437,305.238647 403.129028,304.049866 402.010651,302.861053 
	C403.817413,298.997284 405.358063,294.980011 407.481659,291.298981 
	C413.437561,280.974976 419.699371,270.828003 425.720917,260.541168 
	C435.848999,243.239044 445.928650,225.908188 455.946106,208.541794 
	C464.713287,193.342957 473.360413,178.074905 482.073212,162.844666 
	C486.676941,154.797241 491.307617,146.765244 496.361938,138.328674 
	C497.063629,137.901474 497.329529,137.871872 497.595398,137.842285 
	C503.719604,148.093399 509.956970,158.278870 515.948486,168.606979 
	C542.351624,214.120621 568.686401,259.673981 595.041016,305.215759 
	C608.179199,327.919037 621.306824,350.628357 634.327026,373.705322 
z"/>
<path fill="#1A41A0" opacity="1.000000" stroke="none" 
	d="
M497.380127,137.531708 
	C497.329529,137.871872 497.063629,137.901474 496.398865,137.975861 
	C495.678406,137.914200 495.416504,137.725113 495.108582,137.232208 
	C495.723541,137.081055 496.444183,137.151108 497.380127,137.531708 
z"/>
<path fill="#1A41A0" opacity="1.000000" stroke="none" 
	d="
M222.662231,136.958038 
	C222.686310,137.249207 222.365509,137.522949 221.723938,137.861511 
	C221.707901,137.597748 222.012650,137.269196 222.662231,136.958038 
z"/>
<path fill="#395EAE" opacity="1.000000" stroke="none" 
	d="
M496.314148,610.997803 
	C496.282715,610.729004 496.562408,610.467651 497.132629,610.148499 
	C497.157166,610.395508 496.891205,610.700317 496.314148,610.997803 
z"/>
<path fill="#FCFCFE" opacity="1.000000" stroke="none" 
	d="
M169.205444,377.155701 
	C178.324371,349.107422 187.357346,321.446625 196.216721,293.730347 
	C197.296631,290.351898 198.773575,289.003174 202.477554,289.137543 
	C210.960983,289.445343 219.464386,289.313080 227.957108,289.186798 
	C230.477066,289.149323 231.809601,289.815399 232.646210,292.404053 
	C249.368988,344.148071 266.187134,395.861237 282.976440,447.583771 
	C283.020538,447.719635 282.923218,447.901428 282.741058,448.835693 
	C273.384857,448.835693 263.852234,448.934509 254.329926,448.666260 
	C253.479507,448.642303 252.351166,446.337738 251.935547,444.921112 
	C248.152222,432.025482 244.498505,419.091797 240.719711,405.863983 
	C223.691177,405.863983 206.890503,405.786713 190.094299,406.025452 
	C188.882721,406.042694 187.061584,408.168030 186.611633,409.644653 
	C183.073441,421.255859 179.659805,432.910431 176.533813,444.638519 
	C175.628784,448.033905 174.178589,449.107208 170.702087,448.986481 
	C162.727783,448.709656 154.737320,448.898834 145.913574,448.898834 
	C153.736176,424.784698 161.401474,401.155487 169.205444,377.155701 
M223.774902,345.708679 
	C220.719452,334.549652 217.664017,323.390625 214.190598,310.705078 
	C207.384430,335.589813 200.969559,359.043915 194.459091,382.847534 
	C207.862900,382.847534 220.761780,382.847534 234.215607,382.847534 
	C230.709076,370.452362 227.321991,358.479462 223.774902,345.708679 
z"/>
<path fill="#FCFDFE" opacity="1.000000" stroke="none" 
	d="
M369.875336,358.237000 
	C378.591431,362.825867 387.307526,367.414734 396.331818,372.125000 
	C415.638031,389.100952 413.331024,414.085083 403.903503,428.045715 
	C395.701752,440.191193 383.852539,446.741882 369.918335,449.861572 
	C352.533264,453.753937 335.545471,451.939667 318.575317,445.644958 
	C309.380249,440.394806 300.567352,435.179688 290.945282,429.485718 
	C297.384796,421.892761 302.806061,415.500458 307.650696,409.788055 
	C315.775299,414.225281 323.436310,418.409271 331.732666,422.880188 
	C344.922272,427.560760 357.573151,428.952728 370.233246,423.790039 
	C376.871674,421.082947 381.070526,416.151398 381.539581,408.756653 
	C381.996338,401.555573 379.295013,395.530426 372.987915,391.969910 
	C367.260437,388.736542 361.044525,386.368317 355.043945,383.618652 
	C347.013763,380.042664 338.890259,376.658966 330.985809,372.823730 
	C325.631226,370.225647 320.186035,367.520264 315.467896,363.954407 
	C293.012543,346.983398 293.056885,314.654480 315.959045,298.258392 
	C337.331879,282.957184 360.680023,283.057373 384.283478,292.559692 
	C390.354065,295.003571 395.706543,299.231262 401.699768,302.750244 
	C403.129028,304.049866 404.247437,305.238647 405.798981,306.887878 
	C401.212341,312.525238 396.685364,318.142487 392.052124,323.670624 
	C391.725098,324.060822 390.614685,323.794495 389.328430,323.434357 
	C375.313995,312.845978 360.268250,308.979828 343.642059,312.258240 
	C335.009949,313.960358 329.116089,319.688690 328.097198,326.547791 
	C326.896759,334.628998 329.867493,340.646851 338.729126,344.925903 
	C348.885620,349.830139 359.474365,353.839111 369.875336,358.237000 
z"/>
<path fill="#4C6EB6" opacity="1.000000" stroke="none" 
	d="
M354.649841,383.764832 
	C361.044525,386.368317 367.260437,388.736542 372.987915,391.969910 
	C379.295013,395.530426 381.996338,401.555573 381.539581,408.756653 
	C381.070526,416.151398 376.871674,421.082947 370.233246,423.790039 
	C357.573151,428.952728 344.922272,427.560760 332.122528,422.941589 
	C339.336609,409.781036 346.796173,396.846008 354.649841,383.764832 
z"/>
<path fill="#FCFCFD" opacity="1.000000" stroke="none" 
	d="
M429.358887,370.038940 
	C429.494171,365.572632 429.743011,361.106384 429.745544,356.640015 
	C429.757751,335.043396 429.703705,313.446808 429.606720,291.182861 
	C429.540283,290.515503 429.444519,290.029419 429.444519,290.029419 
	C437.381378,289.765778 445.316498,289.395111 453.255554,289.268066 
	C461.497498,289.136108 461.511627,289.235474 463.872375,297.144318 
	C471.148438,321.520203 478.410339,345.900330 485.693054,370.274292 
	C486.115906,371.689453 486.674103,373.064178 487.524231,375.456451 
	C488.255768,373.218506 488.715332,371.911530 489.111694,370.585693 
	C496.778503,344.939850 504.506866,319.311981 512.018921,293.620850 
	C513.056030,290.073914 514.706665,289.043091 518.281799,289.151337 
	C527.059204,289.417053 535.850159,289.238220 545.181091,289.238220 
	C545.181091,317.187561 545.181091,344.617279 545.270996,372.506470 
	C545.280334,396.235626 545.199280,419.505280 545.119873,442.774933 
	C545.113708,444.581451 545.119080,446.388031 545.119080,448.548340 
	C536.727112,448.548340 528.678650,448.548340 520.039856,448.548340 
	C520.039856,423.634613 520.039856,398.773621 520.119751,373.067719 
	C521.242798,356.371490 522.285950,340.520233 523.329163,324.668945 
	C522.930237,324.641296 522.531311,324.613647 522.132385,324.585999 
	C517.158203,340.711456 512.183960,356.836914 507.209778,372.962341 
	C503.664825,382.814453 499.983795,392.620880 496.653259,402.544952 
	C495.575012,405.757782 494.102509,406.901917 490.627533,406.854309 
	C478.937195,406.694122 478.948425,406.845612 475.065613,395.681183 
	C472.497406,388.296692 469.883942,380.927979 467.083252,372.874268 
	C461.743347,355.643127 456.610901,339.089935 451.299805,321.960571 
	C450.831635,323.168488 450.269440,323.894440 450.338562,324.554291 
	C450.940918,330.304138 451.801453,336.029480 452.306458,341.786530 
	C453.220978,352.211975 453.943573,362.654236 454.746246,373.089478 
	C454.746246,398.166626 454.746246,423.243744 454.746246,448.610352 
	C446.303314,448.610352 438.409576,448.610352 429.711334,448.610352 
	C429.711334,423.233582 429.711334,398.016907 429.663330,372.041138 
	C429.529877,370.867706 429.444366,370.453339 429.358887,370.038940 
z"/>
<path fill="#3E4C97" opacity="1.000000" stroke="none" 
	d="
M507.657043,372.970367 
	C512.183960,356.836914 517.158203,340.711456 522.132385,324.585999 
	C522.531311,324.613647 522.930237,324.641296 523.329163,324.668945 
	C522.285950,340.520233 521.242798,356.371490 520.041870,372.603638 
	C515.957581,372.982452 512.030945,372.980408 507.657043,372.970367 
z"/>
<path fill="#3F4E98" opacity="1.000000" stroke="none" 
	d="
M455.222961,373.063538 
	C453.943573,362.654236 453.220978,352.211975 452.306458,341.786530 
	C451.801453,336.029480 450.940918,330.304138 450.338562,324.554291 
	C450.269440,323.894440 450.831635,323.168488 451.299805,321.960571 
	C456.610901,339.089935 461.743347,355.643127 466.851898,372.577820 
	C463.118561,372.985413 459.409088,373.011505 455.222961,373.063538 
z"/>
<path fill="#26378B" opacity="1.000000" stroke="none" 
	d="
M429.106995,370.122437 
	C429.444366,370.453339 429.529877,370.867706 429.514038,371.589294 
	C429.412689,371.896515 428.937439,371.896423 428.937439,371.896423 
	C428.937439,371.896423 428.472900,371.996857 428.235229,371.998413 
	C428.283417,371.401978 428.569275,370.803955 429.106995,370.122437 
z"/>
<path fill="#3053AA" opacity="1.000000" stroke="none" 
	d="
M369.935059,357.862183 
	C359.474365,353.839111 348.885620,349.830139 338.729126,344.925903 
	C329.867493,340.646851 326.896759,334.628998 328.097198,326.547791 
	C329.116089,319.688690 335.009949,313.960358 343.642059,312.258240 
	C360.268250,308.979828 375.313995,312.845978 388.966187,323.304901 
	C382.760986,334.878784 376.377869,346.183044 369.935059,357.862183 
z"/>
<path fill="#26378B" opacity="1.000000" stroke="none" 
	d="
M429.263702,290.063721 
	C429.444519,290.029419 429.540283,290.515503 429.438965,290.741577 
	C429.252716,290.677795 429.167816,290.387909 429.263702,290.063721 
z"/>
<path fill="#3255AA" opacity="1.000000" stroke="none" 
	d="
M223.854919,346.107605 
	C227.321991,358.479462 230.709076,370.452362 234.215607,382.847534 
	C220.761780,382.847534 207.862900,382.847534 194.459091,382.847534 
	C200.969559,359.043915 207.384430,335.589813 214.190598,310.705078 
	C217.664017,323.390625 220.719452,334.549652 223.854919,346.107605 
z"/>
</svg>